<svg xmlns="http://www.w3.org/2000/svg" viewBox="-3.33 -79.33 691.17 106.56" width="691.17" height="106.56" role="img">
<path d="M39.70 1.00Q32.20 1.00 25.64 -1.75Q19.09 -4.50 14.14 -9.50Q9.20 -14.50 6.45 -21.05Q3.70 -27.59 3.70 -35.20Q3.70 -42.91 6.50 -49.45Q9.30 -56.00 14.30 -60.95Q19.30 -65.91 26.00 -68.66Q32.70 -71.41 40.50 -71.41Q49.20 -71.41 56.50 -68.16Q63.80 -64.91 68.59 -59.00L59.41 -49.80Q56.09 -54.09 51.19 -56.39Q46.30 -58.70 40.41 -58.70Q33.70 -58.70 28.55 -55.75Q23.41 -52.80 20.50 -47.55Q17.59 -42.30 17.59 -35.30Q17.59 -28.30 20.44 -22.94Q23.30 -17.59 28.25 -14.59Q33.20 -11.59 39.59 -11.59Q46.20 -11.59 50.89 -14.05Q55.59 -16.50 58.09 -21.25Q60.59 -26.00 60.59 -32.91L69.50 -26.80L38.80 -27.09L38.80 -38.91L74.59 -38.91L74.59 -37.00Q74.59 -24.41 70.09 -15.95Q65.59 -7.50 57.75 -3.25Q49.91 1.00 39.70 1.00ZM106.30 1.00Q99.00 1.00 93.14 -2.34Q87.30 -5.70 83.85 -11.45Q80.39 -17.20 80.39 -24.30Q80.39 -31.41 83.80 -37.05Q87.21 -42.70 93.10 -46.05Q99.00 -49.41 106.21 -49.41Q113.60 -49.41 119.44 -46.05Q125.30 -42.70 128.69 -37.05Q132.10 -31.41 132.10 -24.30Q132.10 -17.20 128.69 -11.45Q125.30 -5.70 119.44 -2.34Q113.60 1.00 106.30 1.00ZM106.21 -11.20Q109.89 -11.20 112.74 -12.84Q115.60 -14.50 117.14 -17.45Q118.71 -20.41 118.71 -24.20Q118.71 -28.00 117.10 -30.89Q115.50 -33.80 112.69 -35.44Q109.89 -37.09 106.21 -37.09Q102.60 -37.09 99.80 -35.44Q97.00 -33.80 95.39 -30.89Q93.80 -28.00 93.80 -24.20Q93.80 -20.41 95.39 -17.45Q97.00 -14.50 99.80 -12.84Q102.60 -11.20 106.21 -11.20ZM153.40 -0.00L135.29 -48.30L148.50 -48.30L160.29 -13.20L156.29 -13.09L168.40 -48.30L177.90 -48.30L190.00 -13.09L186.00 -13.20L197.79 -48.30L211.00 -48.30L193.00 -0.00L183.50 -0.00L171.29 -33.41L175.00 -33.41L162.79 -0.00L153.40 -0.00ZM240.51 1.00Q232.90 1.00 226.99 -2.25Q221.10 -5.50 217.65 -11.20Q214.19 -16.91 214.19 -24.20Q214.19 -31.41 217.54 -37.05Q220.90 -42.70 226.69 -46.05Q232.51 -49.41 239.60 -49.41Q246.60 -49.41 251.94 -46.25Q257.30 -43.09 260.35 -37.64Q263.40 -32.20 263.40 -25.30Q263.40 -24.00 263.24 -22.64Q263.10 -21.30 262.69 -19.59L222.10 -19.50L222.10 -29.30L256.60 -29.41L251.30 -25.30Q251.10 -29.59 249.74 -32.50Q248.40 -35.41 245.85 -36.95Q243.30 -38.50 239.60 -38.50Q235.69 -38.50 232.79 -36.75Q229.90 -35.00 228.35 -31.84Q226.80 -28.70 226.80 -24.41Q226.80 -20.00 228.44 -16.75Q230.10 -13.50 233.19 -11.75Q236.30 -10.00 240.40 -10.00Q244.10 -10.00 247.10 -11.25Q250.10 -12.50 252.30 -15.00L260.01 -7.30Q256.51 -3.20 251.44 -1.09Q246.40 1.00 240.51 1.00ZM271.50 -0.00L271.50 -48.30L284.61 -48.30L284.61 -0.00L271.50 -0.00ZM284.61 -26.70L279.50 -30.09Q280.40 -39.00 284.70 -44.14Q289.00 -49.30 297.11 -49.30Q300.61 -49.30 303.40 -48.14Q306.20 -47.00 308.50 -44.41L300.29 -35.00Q299.20 -36.20 297.65 -36.80Q296.11 -37.41 294.11 -37.41Q289.90 -37.41 287.25 -34.75Q284.61 -32.09 284.61 -26.70ZM368.40 1.00Q360.69 1.00 354.10 -1.75Q347.51 -4.50 342.55 -9.45Q337.60 -14.41 334.94 -21.00Q332.30 -27.59 332.30 -35.20Q332.30 -42.80 334.94 -49.39Q337.60 -56.00 342.55 -60.89Q347.51 -65.80 354.05 -68.59Q360.60 -71.41 368.40 -71.41Q376.80 -71.41 383.19 -68.66Q389.60 -65.91 394.51 -61.09L385.30 -51.91Q382.40 -55.09 378.19 -56.89Q374.01 -58.70 368.40 -58.70Q363.51 -58.70 359.44 -57.05Q355.40 -55.41 352.40 -52.25Q349.40 -49.09 347.79 -44.75Q346.19 -40.41 346.19 -35.20Q346.19 -29.91 347.79 -25.59Q349.40 -21.30 352.40 -18.14Q355.40 -15.00 359.44 -13.30Q363.51 -11.59 368.40 -11.59Q374.30 -11.59 378.55 -13.39Q382.80 -15.20 385.69 -18.50L394.90 -9.30Q390.01 -4.41 383.51 -1.70Q377.01 1.00 368.40 1.00ZM423.20 1.00Q416.61 1.00 411.29 -2.30Q406.00 -5.59 403.00 -11.30Q400.00 -17.00 400.00 -24.09Q400.00 -31.30 403.00 -37.00Q406.00 -42.70 411.29 -46.00Q416.61 -49.30 423.20 -49.30Q428.40 -49.30 432.50 -47.19Q436.61 -45.09 439.04 -41.34Q441.50 -37.59 441.70 -32.91L441.70 -15.50Q441.50 -10.70 439.04 -7.00Q436.61 -3.30 432.50 -1.14Q428.40 1.00 423.20 1.00ZM425.61 -11.09Q431.11 -11.09 434.50 -14.75Q437.90 -18.41 437.90 -24.20Q437.90 -28.00 436.34 -30.95Q434.79 -33.91 432.04 -35.55Q429.29 -37.20 425.61 -37.20Q422.00 -37.20 419.25 -35.55Q416.50 -33.91 414.95 -30.95Q413.40 -28.00 413.40 -24.20Q413.40 -20.30 414.95 -17.34Q416.50 -14.41 419.25 -12.75Q422.00 -11.09 425.61 -11.09ZM437.20 -0.00L437.20 -13.00L439.29 -24.80L437.20 -36.41L437.20 -48.30L450.20 -48.30L450.20 -0.00L437.20 -0.00ZM488.59 1.00Q483.41 1.00 479.20 -1.14Q475.00 -3.30 472.50 -7.00Q470.00 -10.70 469.80 -15.50L469.80 -32.59Q470.00 -37.41 472.55 -41.16Q475.09 -44.91 479.25 -47.09Q483.41 -49.30 488.59 -49.30Q495.30 -49.30 500.59 -46.00Q505.91 -42.70 508.95 -37.00Q512.00 -31.30 512.00 -24.09Q512.00 -17.00 508.95 -11.30Q505.91 -5.59 500.59 -2.30Q495.30 1.00 488.59 1.00ZM461.80 20.20L461.80 -48.30L474.91 -48.30L474.91 -35.59L472.70 -23.91L474.80 -12.20L474.80 20.20L461.80 20.20ZM486.30 -11.09Q489.91 -11.09 492.70 -12.75Q495.50 -14.41 497.05 -17.34Q498.59 -20.30 498.59 -24.20Q498.59 -28.00 497.05 -30.95Q495.50 -33.91 492.70 -35.55Q489.91 -37.20 486.30 -37.20Q482.80 -37.20 480.00 -35.55Q477.20 -33.91 475.64 -30.95Q474.09 -28.00 474.09 -24.20Q474.09 -20.30 475.64 -17.34Q477.20 -14.41 479.95 -12.75Q482.70 -11.09 486.30 -11.09ZM520.60 -0.00L520.60 -48.30L533.80 -48.30L533.80 -0.00L520.60 -0.00ZM527.21 -56.09Q524.00 -56.09 521.89 -58.25Q519.80 -60.41 519.80 -63.59Q519.80 -66.70 521.89 -68.89Q524.00 -71.09 527.21 -71.09Q530.50 -71.09 532.55 -68.89Q534.60 -66.70 534.60 -63.59Q534.60 -60.41 532.55 -58.25Q530.50 -56.09 527.21 -56.09ZM552.51 -0.00L552.51 -68.41L565.60 -68.41L565.60 -0.00L552.51 -0.00ZM541.19 -36.80L541.19 -48.30L576.90 -48.30L576.90 -36.80L541.19 -36.80ZM604.50 1.00Q597.91 1.00 592.59 -2.30Q587.30 -5.59 584.30 -11.30Q581.30 -17.00 581.30 -24.09Q581.30 -31.30 584.30 -37.00Q587.30 -42.70 592.59 -46.00Q597.91 -49.30 604.50 -49.30Q609.70 -49.30 613.80 -47.19Q617.91 -45.09 620.34 -41.34Q622.80 -37.59 623.00 -32.91L623.00 -15.50Q622.80 -10.70 620.34 -7.00Q617.91 -3.30 613.80 -1.14Q609.70 1.00 604.50 1.00ZM606.91 -11.09Q612.41 -11.09 615.80 -14.75Q619.20 -18.41 619.20 -24.20Q619.20 -28.00 617.64 -30.95Q616.09 -33.91 613.34 -35.55Q610.59 -37.20 606.91 -37.20Q603.30 -37.20 600.55 -35.55Q597.80 -33.91 596.25 -30.95Q594.70 -28.00 594.70 -24.20Q594.70 -20.30 596.25 -17.34Q597.80 -14.41 600.55 -12.75Q603.30 -11.09 606.91 -11.09ZM618.50 -0.00L618.50 -13.00L620.59 -24.80L618.50 -36.41L618.50 -48.30L631.50 -48.30L631.50 -0.00L618.50 -0.00ZM643.10 -0.00L643.10 -72.30L656.21 -72.30L656.21 -0.00L643.10 -0.00Z" fill="#F6F2E8"/><circle cx="673.08" cy="-7.73" r="7.73" fill="#CFA24A"/>
</svg>
