<svg xmlns="http://www.w3.org/2000/svg" viewBox="-2.91 -78.00 618.51 185.08" width="618.51" height="185.08" role="img">
<path d="M39.20 1.00Q32.00 1.00 25.59 -1.80Q19.20 -4.59 14.39 -9.55Q9.59 -14.50 6.84 -21.05Q4.09 -27.59 4.09 -35.09Q4.09 -42.59 6.84 -49.09Q9.59 -55.59 14.44 -60.55Q19.30 -65.50 25.84 -68.25Q32.41 -71.00 40.00 -71.00Q48.30 -71.00 55.39 -67.80Q62.50 -64.59 67.30 -58.70L59.50 -50.91Q56.41 -55.30 51.20 -57.64Q46.00 -60.00 40.00 -60.00Q32.80 -60.00 27.34 -56.84Q21.91 -53.70 18.91 -48.09Q15.91 -42.50 15.91 -35.09Q15.91 -27.70 18.95 -22.05Q22.00 -16.41 27.20 -13.20Q32.41 -10.00 39.00 -10.00Q46.00 -10.00 51.05 -12.55Q56.09 -15.09 58.80 -20.14Q61.50 -25.20 61.50 -32.59L68.70 -27.41L38.80 -27.41L38.80 -37.91L73.41 -37.91L73.41 -36.30Q73.41 -23.80 68.95 -15.50Q64.50 -7.20 56.80 -3.09Q49.09 1.00 39.20 1.00ZM105.29 1.00Q98.29 1.00 92.59 -2.34Q86.90 -5.70 83.54 -11.39Q80.20 -17.09 80.20 -24.09Q80.20 -31.09 83.54 -36.69Q86.90 -42.30 92.59 -45.64Q98.29 -49.00 105.29 -49.00Q112.40 -49.00 118.09 -45.70Q123.79 -42.41 127.14 -36.75Q130.50 -31.09 130.50 -24.09Q130.50 -17.09 127.14 -11.39Q123.79 -5.70 118.09 -2.34Q112.40 1.00 105.29 1.00ZM105.29 -9.59Q109.40 -9.59 112.54 -11.44Q115.70 -13.30 117.45 -16.59Q119.20 -19.91 119.20 -24.09Q119.20 -28.30 117.40 -31.50Q115.61 -34.70 112.50 -36.55Q109.40 -38.41 105.29 -38.41Q101.29 -38.41 98.14 -36.55Q95.00 -34.70 93.25 -31.50Q91.50 -28.30 91.50 -24.09Q91.50 -19.91 93.25 -16.59Q95.00 -13.30 98.14 -11.44Q101.29 -9.59 105.29 -9.59ZM153.59 -0.00L134.30 -48.00L145.70 -48.00L158.70 -13.09L155.30 -13.00L168.00 -48.00L174.41 -48.00L187.09 -13.00L183.70 -13.09L196.70 -48.00L208.09 -48.00L188.80 -0.00L182.41 -0.00L169.41 -33.20L173.00 -33.20L160.00 -0.00L153.59 -0.00ZM237.31 1.00Q230.10 1.00 224.35 -2.25Q218.60 -5.50 215.24 -11.20Q211.90 -16.91 211.90 -24.00Q211.90 -31.09 215.20 -36.75Q218.49 -42.41 224.15 -45.70Q229.81 -49.00 236.70 -49.00Q243.40 -49.00 248.54 -45.89Q253.70 -42.80 256.65 -37.39Q259.60 -32.00 259.60 -25.09Q259.60 -23.91 259.45 -22.66Q259.31 -21.41 258.99 -19.91L219.60 -19.91L219.60 -28.91L253.31 -28.91L249.20 -25.30Q248.99 -29.70 247.49 -32.70Q245.99 -35.70 243.24 -37.30Q240.49 -38.91 236.49 -38.91Q232.31 -38.91 229.20 -37.09Q226.10 -35.30 224.40 -32.05Q222.70 -28.80 222.70 -24.30Q222.70 -19.80 224.49 -16.39Q226.31 -13.00 229.60 -11.14Q232.90 -9.30 237.20 -9.30Q240.90 -9.30 244.04 -10.59Q247.20 -11.91 249.40 -14.41L256.40 -7.30Q252.90 -3.20 247.90 -1.09Q242.90 1.00 237.31 1.00ZM268.39 -0.00L268.39 -48.00L279.39 -48.00L279.39 -0.00L268.39 -0.00ZM279.39 -26.70L275.60 -28.59Q275.60 -37.70 279.64 -43.34Q283.71 -49.00 291.89 -49.00Q295.50 -49.00 298.39 -47.70Q301.30 -46.41 303.80 -43.50L296.60 -36.09Q295.30 -37.50 293.69 -38.09Q292.10 -38.70 290.00 -38.70Q285.39 -38.70 282.39 -35.80Q279.39 -32.91 279.39 -26.70ZM332.39 -0.00L332.39 -70.00L343.89 -70.00L343.89 -0.00L332.39 -0.00ZM340.30 -0.00L340.30 -10.50L376.89 -10.50L376.89 -0.00L340.30 -0.00ZM386.00 -0.00L386.00 -48.00L397.00 -48.00L397.00 -0.00L386.00 -0.00ZM391.50 -56.80Q388.71 -56.80 386.85 -58.69Q385.00 -60.59 385.00 -63.41Q385.00 -66.20 386.85 -68.09Q388.71 -70.00 391.50 -70.00Q394.39 -70.00 396.19 -68.09Q398.00 -66.20 398.00 -63.41Q398.00 -60.59 396.19 -58.69Q394.39 -56.80 391.50 -56.80ZM425.50 -0.00L403.61 -48.00L415.79 -48.00L432.50 -8.91L425.29 -8.91L442.11 -48.00L453.79 -48.00L431.90 -0.00L425.50 -0.00ZM460.40 -0.00L460.40 -48.00L471.40 -48.00L471.40 -0.00L460.40 -0.00ZM465.90 -56.80Q463.11 -56.80 461.25 -58.69Q459.40 -60.59 459.40 -63.41Q459.40 -66.20 461.25 -68.09Q463.11 -70.00 465.90 -70.00Q468.79 -70.00 470.59 -68.09Q472.40 -66.20 472.40 -63.41Q472.40 -60.59 470.59 -58.69Q468.79 -56.80 465.90 -56.80ZM516.60 -0.00L516.60 -27.70Q516.60 -32.50 513.55 -35.59Q510.51 -38.70 505.69 -38.70Q502.51 -38.70 500.01 -37.30Q497.51 -35.91 496.10 -33.41Q494.69 -30.91 494.69 -27.70L490.40 -30.09Q490.40 -35.59 492.79 -39.84Q495.19 -44.09 499.44 -46.55Q503.69 -49.00 509.01 -49.00Q514.40 -49.00 518.60 -46.25Q522.80 -43.50 525.19 -39.14Q527.60 -34.80 527.60 -30.09L527.60 -0.00L516.60 -0.00ZM483.69 -0.00L483.69 -48.00L494.69 -48.00L494.69 -0.00L483.69 -0.00ZM558.79 21.00Q551.20 21.00 545.50 18.25Q539.79 15.50 536.29 10.50L543.50 3.30Q546.40 6.91 550.09 8.70Q553.79 10.50 559.00 10.50Q565.50 10.50 569.29 7.14Q573.11 3.80 573.11 -2.00L573.11 -13.80L575.00 -24.41L573.11 -35.09L573.11 -48.00L584.11 -48.00L584.11 -2.00Q584.11 4.91 580.90 10.05Q577.70 15.20 572.00 18.09Q566.29 21.00 558.79 21.00ZM558.29 -1.00Q551.90 -1.00 546.75 -4.14Q541.61 -7.30 538.65 -12.80Q535.70 -18.30 535.70 -25.09Q535.70 -31.91 538.65 -37.30Q541.61 -42.70 546.75 -45.84Q551.90 -49.00 558.29 -49.00Q564.00 -49.00 568.29 -46.70Q572.61 -44.41 575.00 -40.34Q577.40 -36.30 577.40 -30.91L577.40 -19.09Q577.40 -13.80 574.95 -9.69Q572.50 -5.59 568.20 -3.30Q563.90 -1.00 558.29 -1.00ZM560.50 -11.41Q564.50 -11.41 567.50 -13.09Q570.50 -14.80 572.14 -17.84Q573.79 -20.91 573.79 -25.00Q573.79 -29.09 572.14 -32.14Q570.50 -35.20 567.50 -36.89Q564.50 -38.59 560.50 -38.59Q556.50 -38.59 553.45 -36.89Q550.40 -35.20 548.70 -32.14Q547.00 -29.09 547.00 -25.00Q547.00 -21.00 548.70 -17.89Q550.40 -14.80 553.45 -13.09Q556.50 -11.41 560.50 -11.41Z" fill="#0A1D2E"/><circle cx="600.91" cy="-7.70" r="7.70" fill="#CFA24A"/><g transform="translate(2.48,57.02)"><path d="M1.62 -0.00L1.62 -15.64L7.31 -15.64Q8.88 -15.64 10.08 -15.07Q11.28 -14.49 11.96 -13.39Q12.64 -12.29 12.64 -10.75Q12.64 -9.13 11.83 -7.98Q11.03 -6.83 9.66 -6.30L13.27 -0.00L10.46 -0.00L6.61 -6.83L8.23 -5.88L4.09 -5.88L4.09 -0.00L1.62 -0.00ZM4.09 -8.08L7.35 -8.08Q8.21 -8.08 8.84 -8.42Q9.47 -8.76 9.82 -9.35Q10.17 -9.96 10.17 -10.77Q10.17 -11.59 9.82 -12.19Q9.47 -12.79 8.84 -13.12Q8.21 -13.44 7.35 -13.44L4.09 -13.44L4.09 -8.08ZM19.97 -0.00L19.97 -15.64L30.28 -15.64L30.28 -13.44L22.45 -13.44L22.45 -8.94L29.86 -8.94L29.86 -6.74L22.45 -6.74L22.45 -2.21L30.28 -2.21L30.28 -0.00L19.97 -0.00ZM42.69 0.25Q41.22 0.25 39.96 -0.30Q38.70 -0.86 37.82 -1.82Q36.94 -2.79 36.52 -4.05L38.62 -4.93Q39.18 -3.48 40.28 -2.71Q41.37 -1.93 42.80 -1.93Q43.64 -1.93 44.27 -2.20Q44.90 -2.46 45.24 -2.94Q45.59 -3.42 45.59 -4.05Q45.59 -4.92 45.11 -5.42Q44.62 -5.92 43.68 -6.21L40.74 -7.14Q38.97 -7.68 38.05 -8.81Q37.13 -9.93 37.13 -11.45Q37.13 -12.77 37.78 -13.76Q38.43 -14.76 39.58 -15.33Q40.72 -15.90 42.19 -15.90Q43.59 -15.90 44.75 -15.40Q45.90 -14.91 46.73 -14.05Q47.56 -13.19 47.94 -12.06L45.88 -11.15Q45.42 -12.39 44.44 -13.06Q43.47 -13.74 42.19 -13.74Q41.41 -13.74 40.82 -13.47Q40.23 -13.21 39.91 -12.71Q39.59 -12.22 39.59 -11.57Q39.59 -10.81 40.07 -10.23Q40.55 -9.64 41.54 -9.34L44.27 -8.49Q46.14 -7.92 47.08 -6.85Q48.03 -5.79 48.03 -4.22Q48.03 -2.92 47.35 -1.91Q46.66 -0.90 45.46 -0.32Q44.27 0.25 42.69 0.25ZM55.42 -0.00L55.42 -15.64L57.90 -15.64L57.90 -0.00L55.42 -0.00ZM65.75 -0.00L65.75 -15.64L70.87 -15.64Q73.31 -15.64 75.11 -14.67Q76.90 -13.69 77.89 -11.93Q78.88 -10.17 78.88 -7.83Q78.88 -5.52 77.89 -3.75Q76.90 -1.98 75.11 -0.99Q73.31 -0.00 70.87 -0.00L65.75 -0.00ZM68.23 -2.21L70.92 -2.21Q72.58 -2.21 73.80 -2.90Q75.03 -3.59 75.70 -4.85Q76.38 -6.11 76.38 -7.83Q76.38 -9.55 75.69 -10.81Q75.01 -12.06 73.79 -12.75Q72.58 -13.44 70.92 -13.44L68.23 -13.44L68.23 -2.21ZM85.93 -0.00L85.93 -15.64L96.24 -15.64L96.24 -13.44L88.41 -13.44L88.41 -8.94L95.82 -8.94L95.82 -6.74L88.41 -6.74L88.41 -2.21L96.24 -2.21L96.24 -0.00L85.93 -0.00ZM103.17 -0.00L103.17 -15.64L105.17 -15.64L113.95 -3.53L113.00 -3.38L113.00 -15.64L115.46 -15.64L115.46 -0.00L113.46 -0.00L104.75 -12.20L105.65 -12.37L105.65 -0.00L103.17 -0.00ZM126.09 -0.00L126.09 -13.44L121.92 -13.44L121.92 -15.64L132.63 -15.64L132.63 -13.44L128.54 -13.44L128.54 -0.00L126.09 -0.00ZM139.10 -0.00L139.10 -15.64L141.58 -15.64L141.58 -0.00L139.10 -0.00ZM148.05 -0.00L153.55 -15.64L156.62 -15.64L162.12 -0.00L159.47 -0.00L158.28 -3.51L151.91 -3.51L150.70 -0.00L148.05 -0.00ZM152.63 -5.71L157.52 -5.71L154.75 -13.90L155.44 -13.90L152.63 -5.71ZM168.59 -0.00L168.59 -15.64L171.07 -15.64L171.07 -2.21L177.83 -2.21L177.83 -0.00L168.59 -0.00Z" fill="#CFA24A"/></g><g transform="translate(2.90,96.93)"><path d="M1.19 -0.00L1.19 -10.69L4.96 -10.69Q6.03 -10.69 6.83 -10.29Q7.63 -9.89 8.09 -9.14Q8.54 -8.39 8.54 -7.39Q8.54 -6.39 8.09 -5.65Q7.63 -4.91 6.84 -4.50Q6.04 -4.09 4.96 -4.09L2.60 -4.09L2.60 -0.00L1.19 -0.00ZM2.60 -5.38L5.01 -5.38Q5.65 -5.38 6.13 -5.63Q6.60 -5.87 6.86 -6.33Q7.12 -6.79 7.12 -7.39Q7.12 -8.01 6.86 -8.46Q6.60 -8.91 6.13 -9.15Q5.65 -9.40 5.01 -9.40L2.60 -9.40L2.60 -5.38ZM12.99 0.17Q12.23 0.17 11.64 -0.11Q11.06 -0.39 10.73 -0.88Q10.40 -1.38 10.40 -2.02Q10.40 -2.64 10.67 -3.13Q10.94 -3.63 11.50 -3.97Q12.07 -4.32 12.93 -4.46L15.80 -4.94L15.80 -3.82L13.23 -3.39Q12.48 -3.26 12.15 -2.91Q11.81 -2.57 11.81 -2.07Q11.81 -1.59 12.19 -1.28Q12.57 -0.96 13.14 -0.96Q13.88 -0.96 14.42 -1.27Q14.95 -1.58 15.26 -2.11Q15.57 -2.64 15.57 -3.29L15.57 -5.25Q15.57 -5.88 15.10 -6.28Q14.64 -6.67 13.88 -6.67Q13.22 -6.67 12.71 -6.33Q12.20 -6.00 11.95 -5.44L10.79 -6.04Q11.01 -6.57 11.48 -7.00Q11.95 -7.42 12.58 -7.66Q13.22 -7.91 13.91 -7.91Q14.79 -7.91 15.47 -7.57Q16.14 -7.23 16.52 -6.64Q16.90 -6.04 16.90 -5.25L16.90 -0.00L15.60 -0.00L15.60 -1.46L15.84 -1.38Q15.60 -0.92 15.18 -0.57Q14.77 -0.23 14.21 -0.03Q13.65 0.17 12.99 0.17ZM19.40 -0.00L19.40 -7.74L20.71 -7.74L20.71 -6.31L20.56 -6.52Q20.84 -7.17 21.39 -7.50Q21.96 -7.82 22.76 -7.82L23.23 -7.82L23.23 -6.56L22.56 -6.56Q21.74 -6.56 21.24 -6.05Q20.74 -5.54 20.74 -4.61L20.74 -0.00L19.40 -0.00ZM28.00 0.09Q26.86 0.09 26.25 -0.56Q25.64 -1.21 25.64 -2.38L25.64 -6.46L24.24 -6.46L24.24 -7.74L24.53 -7.74Q25.04 -7.74 25.34 -8.05Q25.64 -8.37 25.64 -8.88L25.64 -9.51L26.98 -9.51L26.98 -7.74L28.71 -7.74L28.71 -6.46L26.98 -6.46L26.98 -2.43Q26.98 -2.04 27.10 -1.75Q27.22 -1.46 27.51 -1.30Q27.80 -1.13 28.27 -1.13Q28.37 -1.13 28.52 -1.15Q28.67 -1.16 28.80 -1.18L28.80 -0.00Q28.61 0.04 28.38 0.06Q28.16 0.09 28.00 0.09ZM37.55 0.17Q36.43 0.17 35.53 -0.35Q34.63 -0.87 34.10 -1.79Q33.56 -2.71 33.56 -3.87Q33.56 -5.04 34.09 -5.94Q34.61 -6.85 35.52 -7.37Q36.42 -7.91 37.55 -7.91Q38.67 -7.91 39.58 -7.38Q40.48 -6.86 41.00 -5.96Q41.53 -5.05 41.53 -3.87Q41.53 -2.70 40.98 -1.78Q40.44 -0.87 39.54 -0.35Q38.65 0.17 37.55 0.17ZM37.55 -1.12Q38.27 -1.12 38.85 -1.48Q39.43 -1.84 39.77 -2.47Q40.11 -3.10 40.11 -3.87Q40.11 -4.66 39.77 -5.27Q39.43 -5.88 38.85 -6.25Q38.27 -6.61 37.55 -6.61Q36.82 -6.61 36.24 -6.25Q35.66 -5.88 35.31 -5.27Q34.97 -4.66 34.97 -3.87Q34.97 -3.10 35.31 -2.47Q35.66 -1.84 36.24 -1.48Q36.82 -1.12 37.55 -1.12ZM44.51 -0.00L44.51 -6.46L43.03 -6.46L43.03 -7.74L44.51 -7.74L44.51 -8.28Q44.51 -9.11 44.88 -9.69Q45.25 -10.26 45.86 -10.56Q46.47 -10.86 47.21 -10.86Q47.37 -10.86 47.56 -10.84Q47.76 -10.82 47.89 -10.79L47.89 -9.60Q47.77 -9.63 47.61 -9.63Q47.46 -9.64 47.37 -9.64Q46.71 -9.64 46.29 -9.33Q45.86 -9.01 45.86 -8.28L45.86 -7.74L47.70 -7.74L47.70 -6.46L45.86 -6.46L45.86 -0.00L44.51 -0.00ZM57.83 0.17Q56.70 0.17 55.73 -0.24Q54.77 -0.65 54.07 -1.39Q53.37 -2.14 52.97 -3.14Q52.58 -4.15 52.58 -5.34Q52.58 -6.54 52.97 -7.55Q53.35 -8.55 54.06 -9.30Q54.76 -10.04 55.72 -10.45Q56.68 -10.86 57.82 -10.86Q58.92 -10.86 59.80 -10.48Q60.69 -10.09 61.30 -9.47Q61.91 -8.85 62.17 -8.15L60.90 -7.53Q60.53 -8.47 59.74 -9.01Q58.95 -9.56 57.82 -9.56Q56.70 -9.56 55.83 -9.02Q54.96 -8.50 54.47 -7.55Q53.99 -6.60 53.99 -5.34Q53.99 -4.09 54.48 -3.14Q54.97 -2.20 55.84 -1.66Q56.71 -1.13 57.83 -1.13Q58.81 -1.13 59.60 -1.55Q60.38 -1.97 60.84 -2.70Q61.30 -3.43 61.30 -4.39L61.30 -5.05L61.95 -4.45L57.82 -4.45L57.82 -5.67L62.72 -5.67L62.72 -4.72Q62.72 -3.60 62.34 -2.70Q61.95 -1.79 61.27 -1.15Q60.60 -0.52 59.71 -0.17Q58.82 0.17 57.83 0.17ZM68.56 0.17Q67.45 0.17 66.54 -0.35Q65.64 -0.87 65.11 -1.79Q64.58 -2.71 64.58 -3.87Q64.58 -5.04 65.10 -5.94Q65.62 -6.85 66.53 -7.37Q67.43 -7.91 68.56 -7.91Q69.68 -7.91 70.59 -7.38Q71.49 -6.86 72.01 -5.96Q72.54 -5.05 72.54 -3.87Q72.54 -2.70 71.99 -1.78Q71.45 -0.87 70.55 -0.35Q69.66 0.17 68.56 0.17ZM68.56 -1.12Q69.28 -1.12 69.86 -1.48Q70.45 -1.84 70.78 -2.47Q71.12 -3.10 71.12 -3.87Q71.12 -4.66 70.78 -5.27Q70.45 -5.88 69.86 -6.25Q69.28 -6.61 68.56 -6.61Q67.83 -6.61 67.25 -6.25Q66.67 -5.88 66.32 -5.27Q65.98 -4.66 65.98 -3.87Q65.98 -3.10 66.32 -2.47Q66.67 -1.84 67.25 -1.48Q67.83 -1.12 68.56 -1.12ZM76.48 -0.00L73.83 -7.74L75.31 -7.74L77.42 -1.26L76.90 -1.28L78.97 -7.74L80.23 -7.74L82.30 -1.28L81.78 -1.26L83.90 -7.74L85.37 -7.74L82.71 -0.00L81.44 -0.00L79.40 -6.46L79.80 -6.46L77.76 -0.00L76.48 -0.00ZM90.55 0.17Q89.43 0.17 88.55 -0.36Q87.68 -0.89 87.18 -1.81Q86.67 -2.74 86.67 -3.89Q86.67 -5.05 87.17 -5.96Q87.67 -6.86 88.52 -7.38Q89.37 -7.91 90.43 -7.91Q91.30 -7.91 91.96 -7.60Q92.63 -7.29 93.10 -6.76Q93.56 -6.24 93.81 -5.57Q94.06 -4.91 94.06 -4.19Q94.06 -4.03 94.04 -3.84Q94.02 -3.65 93.99 -3.47L87.65 -3.47L87.65 -4.62L93.22 -4.62L92.59 -4.10Q92.71 -4.85 92.44 -5.44Q92.17 -6.03 91.64 -6.37Q91.11 -6.72 90.43 -6.72Q89.76 -6.72 89.20 -6.37Q88.64 -6.03 88.33 -5.39Q88.02 -4.75 88.08 -3.87Q88.02 -3.03 88.35 -2.39Q88.67 -1.75 89.26 -1.40Q89.86 -1.05 90.56 -1.05Q91.34 -1.05 91.87 -1.41Q92.40 -1.76 92.73 -2.33L93.85 -1.75Q93.62 -1.22 93.14 -0.78Q92.66 -0.35 92.00 -0.09Q91.35 0.17 90.55 0.17ZM96.23 -0.00L96.23 -7.74L97.54 -7.74L97.54 -6.31L97.39 -6.52Q97.67 -7.17 98.22 -7.50Q98.79 -7.82 99.59 -7.82L100.06 -7.82L100.06 -6.56L99.39 -6.56Q98.57 -6.56 98.07 -6.05Q97.57 -5.54 97.57 -4.61L97.57 -0.00L96.23 -0.00ZM109.68 0.17Q108.54 0.17 107.59 -0.24Q106.64 -0.65 105.92 -1.39Q105.21 -2.14 104.83 -3.14Q104.44 -4.15 104.44 -5.34Q104.44 -6.54 104.83 -7.55Q105.21 -8.55 105.92 -9.30Q106.62 -10.04 107.58 -10.45Q108.54 -10.86 109.68 -10.86Q110.78 -10.86 111.66 -10.48Q112.55 -10.09 113.16 -9.47Q113.77 -8.85 114.03 -8.15L112.73 -7.56Q112.36 -8.45 111.57 -9.00Q110.78 -9.56 109.68 -9.56Q108.56 -9.56 107.69 -9.02Q106.82 -8.50 106.33 -7.55Q105.85 -6.60 105.85 -5.34Q105.85 -4.09 106.33 -3.14Q106.82 -2.20 107.69 -1.66Q108.56 -1.13 109.68 -1.13Q110.78 -1.13 111.57 -1.69Q112.36 -2.24 112.73 -3.13L114.03 -2.54Q113.77 -1.84 113.16 -1.22Q112.55 -0.60 111.66 -0.22Q110.78 0.17 109.68 0.17ZM118.47 0.17Q117.71 0.17 117.13 -0.11Q116.55 -0.39 116.22 -0.88Q115.89 -1.38 115.89 -2.02Q115.89 -2.64 116.16 -3.13Q116.42 -3.63 116.99 -3.97Q117.55 -4.32 118.42 -4.46L121.29 -4.94L121.29 -3.82L118.72 -3.39Q117.97 -3.26 117.63 -2.91Q117.30 -2.57 117.30 -2.07Q117.30 -1.59 117.68 -1.28Q118.06 -0.96 118.63 -0.96Q119.36 -0.96 119.90 -1.27Q120.44 -1.58 120.75 -2.11Q121.06 -2.64 121.06 -3.29L121.06 -5.25Q121.06 -5.88 120.59 -6.28Q120.12 -6.67 119.36 -6.67Q118.70 -6.67 118.19 -6.33Q117.68 -6.00 117.44 -5.44L116.28 -6.04Q116.49 -6.57 116.97 -7.00Q117.44 -7.42 118.07 -7.66Q118.70 -7.91 119.39 -7.91Q120.28 -7.91 120.96 -7.57Q121.63 -7.23 122.01 -6.64Q122.39 -6.04 122.39 -5.25L122.39 -0.00L121.09 -0.00L121.09 -1.46L121.33 -1.38Q121.09 -0.92 120.67 -0.57Q120.25 -0.23 119.69 -0.03Q119.13 0.17 118.47 0.17ZM124.89 2.87L124.89 -7.74L126.19 -7.74L126.19 -6.07L126.02 -6.40Q126.45 -7.09 127.20 -7.50Q127.94 -7.91 128.91 -7.91Q130.00 -7.91 130.86 -7.37Q131.73 -6.85 132.24 -5.93Q132.74 -5.02 132.74 -3.86Q132.74 -2.73 132.24 -1.81Q131.73 -0.89 130.86 -0.36Q130.00 0.17 128.89 0.17Q127.96 0.17 127.19 -0.24Q126.42 -0.66 126.01 -1.42L126.22 -1.65L126.22 2.87L124.89 2.87ZM128.79 -1.12Q129.52 -1.12 130.10 -1.48Q130.67 -1.84 130.99 -2.46Q131.32 -3.09 131.32 -3.86Q131.32 -4.66 130.99 -5.27Q130.67 -5.88 130.10 -6.25Q129.52 -6.61 128.79 -6.61Q128.06 -6.61 127.48 -6.26Q126.90 -5.90 126.56 -5.27Q126.22 -4.65 126.22 -3.86Q126.22 -3.09 126.56 -2.46Q126.90 -1.84 127.48 -1.48Q128.06 -1.12 128.79 -1.12ZM134.92 -0.00L134.92 -7.74L136.25 -7.74L136.25 -0.00L134.92 -0.00ZM134.92 -8.97L134.92 -10.69L136.25 -10.69L136.25 -8.97L134.92 -8.97ZM141.89 0.09Q140.76 0.09 140.15 -0.56Q139.54 -1.21 139.54 -2.38L139.54 -6.46L138.13 -6.46L138.13 -7.74L138.42 -7.74Q138.94 -7.74 139.24 -8.05Q139.54 -8.37 139.54 -8.88L139.54 -9.51L140.87 -9.51L140.87 -7.74L142.61 -7.74L142.61 -6.46L140.87 -6.46L140.87 -2.43Q140.87 -2.04 141.00 -1.75Q141.12 -1.46 141.41 -1.30Q141.69 -1.13 142.17 -1.13Q142.27 -1.13 142.42 -1.15Q142.57 -1.16 142.70 -1.18L142.70 -0.00Q142.51 0.04 142.28 0.06Q142.05 0.09 141.89 0.09ZM147.13 0.17Q146.37 0.17 145.79 -0.11Q145.21 -0.39 144.88 -0.88Q144.55 -1.38 144.55 -2.02Q144.55 -2.64 144.81 -3.13Q145.08 -3.63 145.64 -3.97Q146.21 -4.32 147.07 -4.46L149.94 -4.94L149.94 -3.82L147.37 -3.39Q146.63 -3.26 146.29 -2.91Q145.95 -2.57 145.95 -2.07Q145.95 -1.59 146.33 -1.28Q146.71 -0.96 147.29 -0.96Q148.02 -0.96 148.56 -1.27Q149.10 -1.58 149.40 -2.11Q149.71 -2.64 149.71 -3.29L149.71 -5.25Q149.71 -5.88 149.25 -6.28Q148.78 -6.67 148.02 -6.67Q147.36 -6.67 146.85 -6.33Q146.34 -6.00 146.10 -5.44L144.94 -6.04Q145.15 -6.57 145.62 -7.00Q146.10 -7.42 146.73 -7.66Q147.36 -7.91 148.05 -7.91Q148.94 -7.91 149.61 -7.57Q150.29 -7.23 150.67 -6.64Q151.05 -6.04 151.05 -5.25L151.05 -0.00L149.74 -0.00L149.74 -1.46L149.99 -1.38Q149.74 -0.92 149.33 -0.57Q148.91 -0.23 148.35 -0.03Q147.79 0.17 147.13 0.17ZM153.55 -0.00L153.55 -10.86L154.88 -10.86L154.88 -0.00L153.55 -0.00ZM160.45 -0.00L160.45 -10.69L164.22 -10.69Q165.28 -10.69 166.09 -10.29Q166.89 -9.89 167.34 -9.14Q167.79 -8.39 167.79 -7.39Q167.79 -6.39 167.34 -5.65Q166.89 -4.91 166.09 -4.50Q165.30 -4.09 164.22 -4.09L161.85 -4.09L161.85 -0.00L160.45 -0.00ZM161.85 -5.38L164.27 -5.38Q164.91 -5.38 165.38 -5.63Q165.86 -5.87 166.12 -6.33Q166.37 -6.79 166.37 -7.39Q166.37 -8.01 166.12 -8.46Q165.86 -8.91 165.38 -9.15Q164.91 -9.40 164.27 -9.40L161.85 -9.40L161.85 -5.38ZM169.98 -0.00L169.98 -7.74L171.28 -7.74L171.28 -6.31L171.14 -6.52Q171.41 -7.17 171.97 -7.50Q172.53 -7.82 173.33 -7.82L173.81 -7.82L173.81 -6.56L173.13 -6.56Q172.31 -6.56 171.81 -6.05Q171.31 -5.54 171.31 -4.61L171.31 -0.00L169.98 -0.00ZM179.10 0.17Q177.98 0.17 177.08 -0.35Q176.18 -0.87 175.64 -1.79Q175.11 -2.71 175.11 -3.87Q175.11 -5.04 175.64 -5.94Q176.16 -6.85 177.06 -7.37Q177.97 -7.91 179.10 -7.91Q180.22 -7.91 181.12 -7.38Q182.03 -6.86 182.55 -5.96Q183.08 -5.05 183.08 -3.87Q183.08 -2.70 182.53 -1.78Q181.99 -0.87 181.09 -0.35Q180.19 0.17 179.10 0.17ZM179.10 -1.12Q179.82 -1.12 180.40 -1.48Q180.98 -1.84 181.32 -2.47Q181.66 -3.10 181.66 -3.87Q181.66 -4.66 181.32 -5.27Q180.98 -5.88 180.40 -6.25Q179.82 -6.61 179.10 -6.61Q178.37 -6.61 177.79 -6.25Q177.21 -5.88 176.86 -5.27Q176.52 -4.66 176.52 -3.87Q176.52 -3.10 176.86 -2.47Q177.21 -1.84 177.79 -1.48Q178.37 -1.12 179.10 -1.12ZM185.24 2.87L185.24 -7.74L186.55 -7.74L186.55 -6.07L186.38 -6.40Q186.81 -7.09 187.55 -7.50Q188.30 -7.91 189.26 -7.91Q190.35 -7.91 191.22 -7.37Q192.09 -6.85 192.59 -5.93Q193.09 -5.02 193.09 -3.86Q193.09 -2.73 192.59 -1.81Q192.09 -0.89 191.22 -0.36Q190.35 0.17 189.25 0.17Q188.31 0.17 187.55 -0.24Q186.78 -0.66 186.36 -1.42L186.58 -1.65L186.58 2.87L185.24 2.87ZM189.15 -1.12Q189.88 -1.12 190.45 -1.48Q191.03 -1.84 191.35 -2.46Q191.67 -3.09 191.67 -3.86Q191.67 -4.66 191.35 -5.27Q191.03 -5.88 190.45 -6.25Q189.88 -6.61 189.15 -6.61Q188.42 -6.61 187.83 -6.26Q187.25 -5.90 186.92 -5.27Q186.58 -4.65 186.58 -3.86Q186.58 -3.09 186.92 -2.46Q187.25 -1.84 187.83 -1.48Q188.42 -1.12 189.15 -1.12ZM198.83 0.17Q197.71 0.17 196.84 -0.36Q195.96 -0.89 195.46 -1.81Q194.96 -2.74 194.96 -3.89Q194.96 -5.05 195.45 -5.96Q195.95 -6.86 196.80 -7.38Q197.66 -7.91 198.72 -7.91Q199.58 -7.91 200.25 -7.60Q200.91 -7.29 201.38 -6.76Q201.85 -6.24 202.10 -5.57Q202.35 -4.91 202.35 -4.19Q202.35 -4.03 202.33 -3.84Q202.31 -3.65 202.28 -3.47L195.93 -3.47L195.93 -4.62L201.50 -4.62L200.87 -4.10Q201.00 -4.85 200.73 -5.44Q200.45 -6.03 199.92 -6.37Q199.39 -6.72 198.72 -6.72Q198.04 -6.72 197.48 -6.37Q196.93 -6.03 196.62 -5.39Q196.31 -4.75 196.36 -3.87Q196.31 -3.03 196.63 -2.39Q196.95 -1.75 197.55 -1.40Q198.15 -1.05 198.85 -1.05Q199.62 -1.05 200.15 -1.41Q200.69 -1.76 201.02 -2.33L202.13 -1.75Q201.91 -1.22 201.42 -0.78Q200.94 -0.35 200.29 -0.09Q199.64 0.17 198.83 0.17ZM204.52 -0.00L204.52 -7.74L205.82 -7.74L205.82 -6.31L205.68 -6.52Q205.95 -7.17 206.51 -7.50Q207.07 -7.82 207.87 -7.82L208.35 -7.82L208.35 -6.56L207.67 -6.56Q206.86 -6.56 206.35 -6.05Q205.85 -5.54 205.85 -4.61L205.85 -0.00L204.52 -0.00ZM213.11 0.09Q211.98 0.09 211.37 -0.56Q210.76 -1.21 210.76 -2.38L210.76 -6.46L209.35 -6.46L209.35 -7.74L209.64 -7.74Q210.16 -7.74 210.46 -8.05Q210.76 -8.37 210.76 -8.88L210.76 -9.51L212.09 -9.51L212.09 -7.74L213.83 -7.74L213.83 -6.46L212.09 -6.46L212.09 -2.43Q212.09 -2.04 212.21 -1.75Q212.34 -1.46 212.62 -1.30Q212.91 -1.13 213.38 -1.13Q213.49 -1.13 213.64 -1.15Q213.79 -1.16 213.92 -1.18L213.92 -0.00Q213.73 0.04 213.50 0.06Q213.27 0.09 213.11 0.09ZM216.50 3.16Q216.24 3.16 215.98 3.11Q215.72 3.07 215.49 2.97L215.49 1.78Q215.65 1.81 215.89 1.84Q216.13 1.88 216.35 1.88Q217.03 1.88 217.38 1.59Q217.73 1.29 218.05 0.57L218.54 -0.59L218.51 0.57L215.21 -7.74L216.66 -7.74L219.22 -1.13L218.79 -1.13L221.35 -7.74L222.83 -7.74L219.34 0.92Q219.10 1.54 218.72 2.04Q218.34 2.55 217.79 2.85Q217.24 3.16 216.50 3.16ZM232.46 0.17Q231.32 0.17 230.36 -0.24Q229.40 -0.65 228.70 -1.39Q227.99 -2.14 227.60 -3.14Q227.20 -4.15 227.20 -5.34Q227.20 -6.54 227.59 -7.55Q227.98 -8.55 228.68 -9.30Q229.38 -10.04 230.35 -10.45Q231.31 -10.86 232.44 -10.86Q233.55 -10.86 234.43 -10.48Q235.31 -10.09 235.92 -9.47Q236.53 -8.85 236.79 -8.15L235.53 -7.53Q235.15 -8.47 234.36 -9.01Q233.57 -9.56 232.44 -9.56Q231.32 -9.56 230.45 -9.02Q229.59 -8.50 229.10 -7.55Q228.61 -6.60 228.61 -5.34Q228.61 -4.09 229.10 -3.14Q229.60 -2.20 230.47 -1.66Q231.34 -1.13 232.46 -1.13Q233.43 -1.13 234.22 -1.55Q235.01 -1.97 235.47 -2.70Q235.93 -3.43 235.93 -4.39L235.93 -5.05L236.57 -4.45L232.44 -4.45L232.44 -5.67L237.35 -5.67L237.35 -4.72Q237.35 -3.60 236.96 -2.70Q236.57 -1.79 235.90 -1.15Q235.23 -0.52 234.34 -0.17Q233.44 0.17 232.46 0.17ZM239.52 -0.00L239.52 -7.74L240.82 -7.74L240.82 -6.31L240.68 -6.52Q240.95 -7.17 241.51 -7.50Q242.07 -7.82 242.87 -7.82L243.35 -7.82L243.35 -6.56L242.67 -6.56Q241.85 -6.56 241.35 -6.05Q240.85 -5.54 240.85 -4.61L240.85 -0.00L239.52 -0.00ZM248.64 0.17Q247.52 0.17 246.62 -0.35Q245.72 -0.87 245.18 -1.79Q244.65 -2.71 244.65 -3.87Q244.65 -5.04 245.18 -5.94Q245.70 -6.85 246.60 -7.37Q247.51 -7.91 248.64 -7.91Q249.76 -7.91 250.66 -7.38Q251.57 -6.86 252.09 -5.96Q252.62 -5.05 252.62 -3.87Q252.62 -2.70 252.07 -1.78Q251.53 -0.87 250.63 -0.35Q249.73 0.17 248.64 0.17ZM248.64 -1.12Q249.36 -1.12 249.94 -1.48Q250.52 -1.84 250.86 -2.47Q251.20 -3.10 251.20 -3.87Q251.20 -4.66 250.86 -5.27Q250.52 -5.88 249.94 -6.25Q249.36 -6.61 248.64 -6.61Q247.91 -6.61 247.33 -6.25Q246.75 -5.88 246.40 -5.27Q246.06 -4.66 246.06 -3.87Q246.06 -3.10 246.40 -2.47Q246.75 -1.84 247.33 -1.48Q247.91 -1.12 248.64 -1.12ZM257.52 0.17Q256.69 0.17 256.02 -0.22Q255.36 -0.60 254.99 -1.30Q254.63 -2.00 254.63 -2.90L254.63 -7.74L255.96 -7.74L255.96 -3.04Q255.96 -2.47 256.20 -2.04Q256.43 -1.61 256.86 -1.36Q257.28 -1.12 257.83 -1.12Q258.37 -1.12 258.79 -1.36Q259.22 -1.61 259.46 -2.07Q259.69 -2.52 259.69 -3.16L259.69 -7.74L261.04 -7.74L261.04 -0.00L259.74 -0.00L259.74 -1.51L259.95 -1.38Q259.68 -0.65 259.02 -0.24Q258.37 0.17 257.52 0.17ZM263.54 2.87L263.54 -7.74L264.84 -7.74L264.84 -6.07L264.67 -6.40Q265.10 -7.09 265.85 -7.50Q266.59 -7.91 267.56 -7.91Q268.65 -7.91 269.51 -7.37Q270.38 -6.85 270.89 -5.93Q271.39 -5.02 271.39 -3.86Q271.39 -2.73 270.89 -1.81Q270.38 -0.89 269.51 -0.36Q268.65 0.17 267.54 0.17Q266.61 0.17 265.84 -0.24Q265.07 -0.66 264.66 -1.42L264.87 -1.65L264.87 2.87L263.54 2.87ZM267.44 -1.12Q268.17 -1.12 268.75 -1.48Q269.32 -1.84 269.64 -2.46Q269.97 -3.09 269.97 -3.86Q269.97 -4.66 269.64 -5.27Q269.32 -5.88 268.75 -6.25Q268.17 -6.61 267.44 -6.61Q266.71 -6.61 266.13 -6.26Q265.55 -5.90 265.21 -5.27Q264.87 -4.65 264.87 -3.86Q264.87 -3.09 265.21 -2.46Q265.55 -1.84 266.13 -1.48Q266.71 -1.12 267.44 -1.12Z" fill="#1E3A53"/></g>
</svg>
