<svg xmlns="http://www.w3.org/2000/svg" viewBox="-2.91 -78.00 618.51 106.00" width="618.51" height="106.00" role="img">
<path d="M39.20 1.00Q32.00 1.00 25.59 -1.80Q19.20 -4.59 14.39 -9.55Q9.59 -14.50 6.84 -21.05Q4.09 -27.59 4.09 -35.09Q4.09 -42.59 6.84 -49.09Q9.59 -55.59 14.44 -60.55Q19.30 -65.50 25.84 -68.25Q32.41 -71.00 40.00 -71.00Q48.30 -71.00 55.39 -67.80Q62.50 -64.59 67.30 -58.70L59.50 -50.91Q56.41 -55.30 51.20 -57.64Q46.00 -60.00 40.00 -60.00Q32.80 -60.00 27.34 -56.84Q21.91 -53.70 18.91 -48.09Q15.91 -42.50 15.91 -35.09Q15.91 -27.70 18.95 -22.05Q22.00 -16.41 27.20 -13.20Q32.41 -10.00 39.00 -10.00Q46.00 -10.00 51.05 -12.55Q56.09 -15.09 58.80 -20.14Q61.50 -25.20 61.50 -32.59L68.70 -27.41L38.80 -27.41L38.80 -37.91L73.41 -37.91L73.41 -36.30Q73.41 -23.80 68.95 -15.50Q64.50 -7.20 56.80 -3.09Q49.09 1.00 39.20 1.00ZM105.29 1.00Q98.29 1.00 92.59 -2.34Q86.90 -5.70 83.54 -11.39Q80.20 -17.09 80.20 -24.09Q80.20 -31.09 83.54 -36.69Q86.90 -42.30 92.59 -45.64Q98.29 -49.00 105.29 -49.00Q112.40 -49.00 118.09 -45.70Q123.79 -42.41 127.14 -36.75Q130.50 -31.09 130.50 -24.09Q130.50 -17.09 127.14 -11.39Q123.79 -5.70 118.09 -2.34Q112.40 1.00 105.29 1.00ZM105.29 -9.59Q109.40 -9.59 112.54 -11.44Q115.70 -13.30 117.45 -16.59Q119.20 -19.91 119.20 -24.09Q119.20 -28.30 117.40 -31.50Q115.61 -34.70 112.50 -36.55Q109.40 -38.41 105.29 -38.41Q101.29 -38.41 98.14 -36.55Q95.00 -34.70 93.25 -31.50Q91.50 -28.30 91.50 -24.09Q91.50 -19.91 93.25 -16.59Q95.00 -13.30 98.14 -11.44Q101.29 -9.59 105.29 -9.59ZM153.59 -0.00L134.30 -48.00L145.70 -48.00L158.70 -13.09L155.30 -13.00L168.00 -48.00L174.41 -48.00L187.09 -13.00L183.70 -13.09L196.70 -48.00L208.09 -48.00L188.80 -0.00L182.41 -0.00L169.41 -33.20L173.00 -33.20L160.00 -0.00L153.59 -0.00ZM237.31 1.00Q230.10 1.00 224.35 -2.25Q218.60 -5.50 215.24 -11.20Q211.90 -16.91 211.90 -24.00Q211.90 -31.09 215.20 -36.75Q218.49 -42.41 224.15 -45.70Q229.81 -49.00 236.70 -49.00Q243.40 -49.00 248.54 -45.89Q253.70 -42.80 256.65 -37.39Q259.60 -32.00 259.60 -25.09Q259.60 -23.91 259.45 -22.66Q259.31 -21.41 258.99 -19.91L219.60 -19.91L219.60 -28.91L253.31 -28.91L249.20 -25.30Q248.99 -29.70 247.49 -32.70Q245.99 -35.70 243.24 -37.30Q240.49 -38.91 236.49 -38.91Q232.31 -38.91 229.20 -37.09Q226.10 -35.30 224.40 -32.05Q222.70 -28.80 222.70 -24.30Q222.70 -19.80 224.49 -16.39Q226.31 -13.00 229.60 -11.14Q232.90 -9.30 237.20 -9.30Q240.90 -9.30 244.04 -10.59Q247.20 -11.91 249.40 -14.41L256.40 -7.30Q252.90 -3.20 247.90 -1.09Q242.90 1.00 237.31 1.00ZM268.39 -0.00L268.39 -48.00L279.39 -48.00L279.39 -0.00L268.39 -0.00ZM279.39 -26.70L275.60 -28.59Q275.60 -37.70 279.64 -43.34Q283.71 -49.00 291.89 -49.00Q295.50 -49.00 298.39 -47.70Q301.30 -46.41 303.80 -43.50L296.60 -36.09Q295.30 -37.50 293.69 -38.09Q292.10 -38.70 290.00 -38.70Q285.39 -38.70 282.39 -35.80Q279.39 -32.91 279.39 -26.70ZM332.39 -0.00L332.39 -70.00L343.89 -70.00L343.89 -0.00L332.39 -0.00ZM340.30 -0.00L340.30 -10.50L376.89 -10.50L376.89 -0.00L340.30 -0.00ZM386.00 -0.00L386.00 -48.00L397.00 -48.00L397.00 -0.00L386.00 -0.00ZM391.50 -56.80Q388.71 -56.80 386.85 -58.69Q385.00 -60.59 385.00 -63.41Q385.00 -66.20 386.85 -68.09Q388.71 -70.00 391.50 -70.00Q394.39 -70.00 396.19 -68.09Q398.00 -66.20 398.00 -63.41Q398.00 -60.59 396.19 -58.69Q394.39 -56.80 391.50 -56.80ZM425.50 -0.00L403.61 -48.00L415.79 -48.00L432.50 -8.91L425.29 -8.91L442.11 -48.00L453.79 -48.00L431.90 -0.00L425.50 -0.00ZM460.40 -0.00L460.40 -48.00L471.40 -48.00L471.40 -0.00L460.40 -0.00ZM465.90 -56.80Q463.11 -56.80 461.25 -58.69Q459.40 -60.59 459.40 -63.41Q459.40 -66.20 461.25 -68.09Q463.11 -70.00 465.90 -70.00Q468.79 -70.00 470.59 -68.09Q472.40 -66.20 472.40 -63.41Q472.40 -60.59 470.59 -58.69Q468.79 -56.80 465.90 -56.80ZM516.60 -0.00L516.60 -27.70Q516.60 -32.50 513.55 -35.59Q510.51 -38.70 505.69 -38.70Q502.51 -38.70 500.01 -37.30Q497.51 -35.91 496.10 -33.41Q494.69 -30.91 494.69 -27.70L490.40 -30.09Q490.40 -35.59 492.79 -39.84Q495.19 -44.09 499.44 -46.55Q503.69 -49.00 509.01 -49.00Q514.40 -49.00 518.60 -46.25Q522.80 -43.50 525.19 -39.14Q527.60 -34.80 527.60 -30.09L527.60 -0.00L516.60 -0.00ZM483.69 -0.00L483.69 -48.00L494.69 -48.00L494.69 -0.00L483.69 -0.00ZM558.79 21.00Q551.20 21.00 545.50 18.25Q539.79 15.50 536.29 10.50L543.50 3.30Q546.40 6.91 550.09 8.70Q553.79 10.50 559.00 10.50Q565.50 10.50 569.29 7.14Q573.11 3.80 573.11 -2.00L573.11 -13.80L575.00 -24.41L573.11 -35.09L573.11 -48.00L584.11 -48.00L584.11 -2.00Q584.11 4.91 580.90 10.05Q577.70 15.20 572.00 18.09Q566.29 21.00 558.79 21.00ZM558.29 -1.00Q551.90 -1.00 546.75 -4.14Q541.61 -7.30 538.65 -12.80Q535.70 -18.30 535.70 -25.09Q535.70 -31.91 538.65 -37.30Q541.61 -42.70 546.75 -45.84Q551.90 -49.00 558.29 -49.00Q564.00 -49.00 568.29 -46.70Q572.61 -44.41 575.00 -40.34Q577.40 -36.30 577.40 -30.91L577.40 -19.09Q577.40 -13.80 574.95 -9.69Q572.50 -5.59 568.20 -3.30Q563.90 -1.00 558.29 -1.00ZM560.50 -11.41Q564.50 -11.41 567.50 -13.09Q570.50 -14.80 572.14 -17.84Q573.79 -20.91 573.79 -25.00Q573.79 -29.09 572.14 -32.14Q570.50 -35.20 567.50 -36.89Q564.50 -38.59 560.50 -38.59Q556.50 -38.59 553.45 -36.89Q550.40 -35.20 548.70 -32.14Q547.00 -29.09 547.00 -25.00Q547.00 -21.00 548.70 -17.89Q550.40 -14.80 553.45 -13.09Q556.50 -11.41 560.50 -11.41Z" fill="#F6F2E8"/><circle cx="600.91" cy="-7.70" r="7.70" fill="#CFA24A"/>
</svg>
