<svg xmlns="http://www.w3.org/2000/svg" viewBox="-4.73 -79.84 102.47 97.77" width="102.47" height="97.77" role="img">
<path d="M39.70 1.00Q32.20 1.00 25.64 -1.75Q19.09 -4.50 14.14 -9.50Q9.20 -14.50 6.45 -21.05Q3.70 -27.59 3.70 -35.20Q3.70 -42.91 6.50 -49.45Q9.30 -56.00 14.30 -60.95Q19.30 -65.91 26.00 -68.66Q32.70 -71.41 40.50 -71.41Q49.20 -71.41 56.50 -68.16Q63.80 -64.91 68.59 -59.00L59.41 -49.80Q56.09 -54.09 51.19 -56.39Q46.30 -58.70 40.41 -58.70Q33.70 -58.70 28.55 -55.75Q23.41 -52.80 20.50 -47.55Q17.59 -42.30 17.59 -35.30Q17.59 -28.30 20.44 -22.94Q23.30 -17.59 28.25 -14.59Q33.20 -11.59 39.59 -11.59Q46.20 -11.59 50.89 -14.05Q55.59 -16.50 58.09 -21.25Q60.59 -26.00 60.59 -32.91L69.50 -26.80L38.80 -27.09L38.80 -38.91L74.59 -38.91L74.59 -37.00Q74.59 -24.41 70.09 -15.95Q65.59 -7.50 57.75 -3.25Q49.91 1.00 39.70 1.00Z" fill="#0A1D2E"/><circle cx="79.81" cy="-0.00" r="9.49" fill="#CFA24A"/>
</svg>
